# File created by Blade
# Date/Time:  Fri Jan 16 17:52:57 2015
#---------------------------------------------------------
:version 1.10
:name HOM
:units
  mass 1.0
  length 1.000000
  angle deg
:documentation
     Acclaim Skeleton File
:root
   axis xyz
   order TX TY TZ RX RY RZ
   position 0.000000 0.000000 0.000000
   orientation 0 0 0
:bonedata
   begin
      id 1
      name Spine_dum
      direction 0.000000 1.000000 0.000000
      length 7.170412
      axis 0.0 0.0 0.0 xyz
   end
   begin
      id 2
      name LeftUpLeg_dum
      direction 1.000000 0.000000 0.000000
      length 4.318350
      axis 0.0 0.0 0.0 xyz
   end
   begin
      id 3
      name RightUpLeg_dum
      direction -1.000000 0.000000 0.000000
      length 4.318350
      axis 0.0 0.0 0.0 xyz
   end
   begin
      id 4
      name Spine
      direction 0.000000 1.000000 0.000000
      length 0.000000
      axis 0.0 0.0 0.0 xyz
      dof rx ry rz
   end
   begin
      id 5
      name Spine_dum1
      direction 0.000000 1.000000 0.000000
      length 14.276153
      axis 0.0 0.0 0.0 xyz
   end
   begin
      id 6
      name Spine_dum2
      direction 0.000000 1.000000 0.000000
      length 10.718243
      axis 0.0 0.0 0.0 xyz
   end
   begin
      id 7
      name Spine_dum3
      direction 0.000000 1.000000 0.000000
      length 10.718243
      axis 0.0 0.0 0.0 xyz
   end
   begin
      id 8
      name Head
      direction 0.000000 1.000000 0.000000
      length 4.527550
      axis 0.0 0.0 0.0 xyz
      dof rx ry rz
   end
   begin
      id 9
      name LeftShoulder
      direction 1.000000 0.000000 0.000000
      length 7.058872
      axis 0.0 0.0 -90.0 xyz
      dof rx ry rz
   end
   begin
      id 10
      name LeftArm
      direction 1.000000 0.000000 0.000000
      length 10.955525
      axis 0.0 0.0 -90.0 xyz
      dof rx ry rz
   end
   begin
      id 11
      name LeftForeArm
      direction 1.000000 0.000000 0.000000
      length 8.193716
      axis 0.0 0.0 -90.0 xyz
      dof ry rz rx
   end
   begin
      id 12
      name LeftHand
      direction 0.000000 0.000000 0.000000
      length 0.000000
      axis 0.0 0.0 -90.0 xyz
      dof rx ry rz
   end
   begin
      id 13
      name LeftHand_dum1
      direction 0.000000 0.000000 0.000000
      length 0.000000
      axis 0.0 0.0 -90.0 xyz
   end
   begin
      id 14
      name LeftHand_dum2
      direction 1.000000 0.000000 0.000000
      length 3.937000
      axis 0.0 0.0 -90.0 xyz
   end
   begin
      id 15
      name LeftHandThumb1
      direction 0.000000 0.000000 1.000000
      length 3.937000
      axis 0.0 0.0 -90.0 xyz
      dof rx rz ry
   end
   begin
      id 16
      name RightShoulder
      direction -1.000000 0.000000 0.000000
      length 7.058872
      axis 0.0 0.0 90.0 xyz
      dof rx ry rz
   end
   begin
      id 17
      name RightArm
      direction -1.000000 0.000000 0.000000
      length 10.955525
      axis 0.0 0.0 90.0 xyz
      dof rx ry rz
   end
   begin
      id 18
      name RightForeArm
      direction -1.000000 0.000000 0.000000
      length 8.193716
      axis 0.0 0.0 90.0 xyz
      dof ry rz rx
   end
   begin
      id 19
      name RightHand
      direction 0.000000 0.000000 0.000000
      length 0.000000
      axis 0.0 0.0 90.0 xyz
      dof rx ry rz
   end
   begin
      id 20
      name RightHand_dum1
      direction 0.000000 0.000000 0.000000
      length 0.000000
      axis 0.0 0.0 90.0 xyz
   end
   begin
      id 21
      name RightHand_dum2
      direction -1.000000 0.000000 0.000000
      length 3.937000
      axis 0.0 0.0 90.0 xyz
   end
   begin
      id 22
      name RightHandThumb1
      direction 0.000000 0.000000 1.000000
      length 3.937000
      axis 0.0 0.0 90.0 xyz
      dof rx rz ry
   end
   begin
      id 23
      name LeftUpLeg
      direction 0.000000 -1.000000 0.000000
      length 17.323638
      axis 0.0 0.0 0.0 xyz
      dof rx ry rz
   end
   begin
      id 24
      name LeftLeg
      direction 0.000000 -1.000000 0.000000
      length 16.270368
      axis 0.0 0.0 0.0 xyz
      dof rx ry rz
   end
   begin
      id 25
      name LeftFoot
      direction 0.000000 -0.258819 0.965926
      length 4.922846
      axis 15.0 0.0 0.0 xyz
      dof rx ry rz
   end
   begin
      id 26
      name LeftToeBase
      direction 0.000000 0.000000 1.000000
      length 2.952750
      axis 0.0 0.0 0.0 xyz
      dof rx ry rz
   end
   begin
      id 27
      name RightUpLeg
      direction 0.000000 -1.000000 0.000000
      length 17.323638
      axis 0.0 0.0 0.0 xyz
      dof rx ry rz
   end
   begin
      id 28
      name RightLeg
      direction 0.000000 -1.000000 0.000000
      length 16.270368
      axis 0.0 0.0 0.0 xyz
      dof rx ry rz
   end
   begin
      id 29
      name RightFoot
      direction 0.000000 -0.258819 0.965926
      length 4.922846
      axis 15.0 0.0 0.0 xyz
      dof rx ry rz
   end
   begin
      id 30
      name RightToeBase
      direction 0.000000 0.000000 1.000000
      length 2.952750
      axis 0.0 0.0 0.0 xyz
      dof rx ry rz
   end
:hierarchy
   begin
      root Spine_dum LeftUpLeg_dum RightUpLeg_dum
      Spine_dum Spine
      LeftUpLeg_dum LeftUpLeg
      RightUpLeg_dum RightUpLeg
      Spine Spine_dum1 Spine_dum2 Spine_dum3
      Spine_dum1 Head
      Spine_dum2 LeftShoulder
      Spine_dum3 RightShoulder
      LeftShoulder LeftArm
      LeftArm LeftForeArm
      LeftForeArm LeftHand
      LeftHand LeftHand_dum1 LeftHand_dum2
      LeftHand_dum1 LeftHandThumb1
      RightShoulder RightArm
      RightArm RightForeArm
      RightForeArm RightHand
      RightHand RightHand_dum1 RightHand_dum2
      RightHand_dum1 RightHandThumb1
      LeftUpLeg LeftLeg
      LeftLeg LeftFoot
      LeftFoot LeftToeBase
      RightUpLeg RightLeg
      RightLeg RightFoot
      RightFoot RightToeBase
   end

# File created by Blade
# Date/Time:  Fri Jan 16 17:53:05 2015
# Frame Rate: 120.000 fps
#------------------------------------------------------
:FULLY-SPECIFIED
:DEGREES
652
root -3.312873 35.017212 -11.034044 -5.425663 -2.755862 -5.914418
Spine 6.013765 -4.937006 7.209451
Head 2.129989 5.445242 -6.422087
LeftShoulder -24.898964 16.403421 -9.703943
LeftArm 24.553434 -37.459499 -75.201868
LeftForeArm -2.828090 -0.000000 127.000208
LeftHand 2.002373 0.000000 10.487603
LeftHandThumb1 -26.253704 0.000000 33.147579
RightShoulder -6.189976 -6.852871 -0.558943
RightArm 4.759341 -19.250896 71.868744
RightForeArm -17.435754 -0.000000 22.769097
RightHand 0.399951 -0.000000 -1.089164
RightHandThumb1 -24.326973 -0.000000 -32.862282
LeftUpLeg 14.431480 5.750557 -4.667365
LeftLeg -8.716563 -0.000000 0.000000
LeftFoot -16.366443 31.077346 -6.054818
LeftToeBase 19.836581 -0.000000 -0.000000
RightUpLeg 4.438041 0.593333 6.457209
RightLeg 51.406557 -0.000000 -0.000000
RightFoot -25.925918 -28.234938 15.671144
RightToeBase -1.339064 -0.000000 0.000000
653
root -3.306148 35.013914 -11.032317 -5.351287 -2.885579 -5.930380
Spine 5.934088 -4.801708 7.290018
Head 2.128206 5.487584 -6.510951
LeftShoulder -24.955827 16.432777 -9.778310
LeftArm 24.481960 -37.426316 -75.107724
LeftForeArm -2.934479 -0.000000 127.106583
LeftHand 1.962479 -0.000000 10.430516
LeftHandThumb1 -26.253704 0.000000 33.147579
RightShoulder -6.196000 -6.857793 -0.602225
RightArm 4.745710 -19.244808 71.873559
RightForeArm -17.440742 -0.000000 22.687897
RightHand 0.418466 -0.000000 -0.880012
RightHandThumb1 -24.326973 -0.000000 -32.862282
LeftUpLeg 14.395105 5.745402 -4.690348
LeftLeg -8.780459 -0.000000 0.000000
LeftFoot -16.367979 31.235993 -6.048762
LeftToeBase 19.831958 -0.000000 -0.000000
RightUpLeg 4.420923 0.863844 6.512944
RightLeg 53.047688 -0.000000 -0.000000
RightFoot -26.128369 -28.904464 15.561517
RightToeBase -0.686129 -0.000000 0.000000
654
root -3.301801 35.012510 -11.030653 -5.283747 -3.008282 -5.942004
Spine 5.868579 -4.675748 7.350341
Head 2.117426 5.538189 -6.575043
LeftShoulder -25.005120 16.445753 -9.825380
LeftArm 24.388174 -37.410232 -75.031100
LeftForeArm -3.072171 -0.000000 127.192470
LeftHand 2.007026 -0.000000 10.340100
LeftHandThumb1 -26.253704 0.000000 33.147579
RightShoulder -6.187311 -6.858343 -0.618821
RightArm 4.716303 -19.218835 71.868514
RightForeArm -17.480748 -0.000000 22.638926
RightHand 0.404435 -0.000000 -0.661855
RightHandThumb1 -24.326973 -0.000000 -32.862282
LeftUpLeg 14.358895 5.705857 -4.712405
LeftLeg -8.824586 -0.000000 0.000000
LeftFoot -16.386213 31.382323 -6.073837
LeftToeBase 19.812778 -0.000000 -0.000000
RightUpLeg 4.427351 1.110755 6.563877
RightLeg 54.625310 -0.000000 -0.000000
RightFoot -26.284194 -29.405511 15.798106
RightToeBase -0.773611 -0.000000 0.000000
655
root -3.298631 35.012524 -11.031319 -5.203092 -3.130683 -5.964956
Spine 5.796752 -4.556767 7.414837
Head 2.094768 5.574027 -6.623029
LeftShoulder -25.055411 16.444842 -9.872229
LeftArm 24.286384 -37.405309 -74.950042
LeftForeArm -3.195555 -0.000000 127.302862
LeftHand 1.967696 0.000000 10.267414
LeftHandThumb1 -26.253704 0.000000 33.147579
RightShoulder -6.203327 -6.920712 -0.646916
RightArm 4.794039 -19.320077 71.860619
RightForeArm -17.427208 -0.000000 22.530616
RightHand 0.384137 -0.000000 -0.879488
RightHandThumb1 -24.326973 -0.000000 -32.862282
LeftUpLeg 14.291535 5.640319 -4.720931
LeftLeg -8.833123 -0.000000 0.000000
LeftFoot -16.441977 31.505106 -6.151004
LeftToeBase 19.848061 -0.000000 -0.000000
RightUpLeg 4.421993 1.365087 6.626097
RightLeg 56.160069 -0.000000 -0.000000
RightFoot -26.447107 -29.974976 15.948808
RightToeBase -0.720795 -0.000000 0.000000
656
root -3.297254 35.013458 -11.032316 -5.124910 -3.254984 -5.991236
Spine 5.731507 -4.424685 7.469557
Head 2.072413 5.588947 -6.634178
LeftShoulder -25.083744 16.466221 -9.904889
LeftArm 24.183671 -37.413264 -74.863905
LeftForeArm -3.257324 -0.000000 127.396708
LeftHand 1.969853 -0.000000 10.282094
LeftHandThumb1 -26.253704 0.000000 33.147579
RightShoulder -6.204172 -6.947867 -0.636634
RightArm 4.812072 -19.385724 71.819593
RightForeArm -17.348065 -0.000000 22.483301
RightHand 0.407537 -0.000000 -1.104496
RightHandThumb1 -24.326973 -0.000000 -32.862282
LeftUpLeg 14.222945 5.577103 -4.728752
LeftLeg -8.850250 -0.000000 0.000000
LeftFoot -16.472359 31.688734 -6.200567
LeftToeBase 19.841299 -0.000000 -0.000000
RightUpLeg 4.440069 1.561347 6.684291
RightLeg 57.610392 -0.000000 -0.000000
RightFoot -26.631570 -30.638043 16.115022
RightToeBase -0.540271 -0.000000 0.000000
657
root -3.295158 35.015416 -11.030808 -5.042644 -3.407351 -6.022227
Spine 5.660274 -4.297647 7.542067
Head 2.041466 5.623114 -6.673229
LeftShoulder -25.151620 16.487238 -9.958600
LeftArm 24.106755 -37.429700 -74.826883
LeftForeArm -3.325181 -0.000000 127.473181
LeftHand 2.013427 -0.000000 10.300151
LeftHandThumb1 -26.253704 0.000000 33.147579
RightShoulder -6.170636 -6.950398 -0.649453
RightArm 4.780713 -19.363230 71.810099
RightForeArm -17.388550 -0.000000 22.451101
RightHand 0.432404 -0.000000 -1.043466
RightHandThumb1 -24.326973 -0.000000 -32.862282
LeftUpLeg 14.157803 5.554344 -4.720960
LeftLeg -8.854935 -0.000000 0.000000
LeftFoot -16.446565 31.810161 -6.169511
LeftToeBase 19.787276 -0.000000 -0.000000
RightUpLeg 4.463360 1.783208 6.733009
RightLeg 59.007577 -0.000000 -0.000000
RightFoot -26.934457 -31.240108 16.385965
RightToeBase -0.152368 -0.000000 0.000000
658
root -3.292960 35.017729 -11.031038 -4.947688 -3.556066 -6.063209
Spine 5.580038 -4.170622 7.625867
Head 2.006190 5.652676 -6.700885
LeftShoulder -25.180079 16.509402 -9.999709
LeftArm 24.004351 -37.494019 -74.799347
LeftForeArm -3.392598 0.000000 127.573378
LeftHand 2.042058 -0.000000 10.289848
LeftHandThumb1 -26.253704 0.000000 33.147579
RightShoulder -6.151357 -6.973685 -0.662583
RightArm 4.780083 -19.360407 71.785403
RightForeArm -17.412035 -0.000000 22.423678
RightHand 0.424053 -0.000000 -0.900579
RightHandThumb1 -24.326973 -0.000000 -32.862282
LeftUpLeg 14.074081 5.528098 -4.705498
LeftLeg -8.855784 -0.000000 0.000000
LeftFoot -16.469588 31.931860 -6.187262
LeftToeBase 19.804606 -0.000000 -0.000000
RightUpLeg 4.479940 1.973255 6.788672
RightLeg 60.369191 -0.000000 -0.000000
RightFoot -27.000728 -31.839074 16.385731
RightToeBase -0.090860 -0.000000 0.000000
659
root -3.293696 35.020290 -11.026757 -4.892897 -3.677254 -6.109695
Spine 5.539735 -4.077609 7.699548
Head 1.967907 5.680639 -6.718303
LeftShoulder -25.231090 16.517132 -10.019207
LeftArm 23.929031 -37.543443 -74.788279
LeftForeArm -3.369385 -0.000000 127.595173
LeftHand 1.799219 -0.000000 10.565404
LeftHandThumb1 -26.253704 0.000000 33.147579
RightShoulder -6.121613 -6.964704 -0.678099
RightArm 4.728266 -19.313506 71.793961
RightForeArm -17.503279 0.000000 22.420865
RightHand 0.462527 -0.000000 -0.898806
RightHandThumb1 -24.326973 -0.000000 -32.862282
LeftUpLeg 14.042939 5.502585 -4.673288
LeftLeg -8.870809 -0.000000 0.000000
LeftFoot -16.508849 32.028312 -6.244729
LeftToeBase 19.777519 -0.000000 -0.000000
RightUpLeg 4.571908 2.134455 6.861302
RightLeg 61.673578 -0.000000 -0.000000
RightFoot -27.052932 -32.299896 16.401092
RightToeBase -0.200149 -0.000000 0.000000
660
root -3.292398 35.022429 -11.027087 -4.818412 -3.792845 -6.151473
Spine 5.492982 -3.987758 7.776735
Head 1.916443 5.697584 -6.743949
LeftShoulder -25.246377 16.523740 -10.040673
LeftArm 23.849848 -37.637682 -74.810109
LeftForeArm -3.429192 0.000000 127.663142
LeftHand 1.779338 -0.000000 10.562768
LeftHandThumb1 -26.253704 0.000000 33.147579
RightShoulder -6.105076 -6.973556 -0.712216
RightArm 4.727708 -19.344887 71.796749
RightForeArm -17.475795 0.000000 22.402954
RightHand 0.433573 -0.000000 -0.986468
RightHandThumb1 -24.326973 -0.000000 -32.862282
LeftUpLeg 13.977977 5.453264 -4.653931
LeftLeg -8.867462 -0.000000 0.000000
LeftFoot -16.527651 32.131988 -6.248262
LeftToeBase 19.786274 -0.000000 -0.000000
RightUpLeg 4.613332 2.282777 6.903951
RightLeg 62.991209 -0.000000 -0.000000
RightFoot -27.232623 -32.619016 16.599440
RightToeBase -0.221498 -0.000000 0.000000
661
root -3.291205 35.023724 -11.027351 -4.742809 -3.912375 -6.178524
Spine 5.442146 -3.895535 7.825624
Head 1.876956 5.707600 -6.746967
LeftShoulder -25.249112 16.556746 -10.066382
LeftArm 23.751625 -37.740440 -74.796179
LeftForeArm -3.551914 -0.000000 127.785048
LeftHand 2.016162 -0.000000 10.364172
LeftHandThumb1 -26.253704 0.000000 33.147579
RightShoulder -6.094648 -6.975443 -0.744858
RightArm 4.716823 -19.383362 71.804403
RightForeArm -17.487517 -0.000000 22.406664
RightHand 0.363402 -0.000000 -0.792220
RightHandThumb1 -24.326973 -0.000000 -32.862282
LeftUpLeg 13.922948 5.395255 -4.652528
LeftLeg -8.889661 -0.000000 0.000000
LeftFoot -16.521878 32.254043 -6.265275
LeftToeBase 19.742941 -0.000000 -0.000000
RightUpLeg 4.654273 2.370128 6.924491
RightLeg 64.285051 -0.000000 -0.000000
RightFoot -27.366482 -32.964959 16.578946
RightToeBase 0.107076 -0.000000 -0.000000
662
root -3.288041 35.024418 -11.027383 -4.676932 -4.031988 -6.194866
Spine 5.409497 -3.817351 7.858942
Head 1.824011 5.731675 -6.740790
LeftShoulder -25.290207 16.576539 -10.091290
LeftArm 23.700618 -37.823540 -74.807760
LeftForeArm -3.584064 -0.000000 127.842455
LeftHand 2.058361 0.000000 10.333053
LeftHandThumb1 -26.253704 0.000000 33.147579
RightShoulder -6.070743 -6.965054 -0.786519
RightArm 4.702268 -19.408565 71.830510
RightForeArm -17.483552 -0.000000 22.394121
RightHand 0.387125 -0.000000 -0.858276
RightHandThumb1 -24.326973 -0.000000 -32.862282
LeftUpLeg 13.897671 5.290653 -4.670334
LeftLeg -8.957965 -0.000000 0.000000
LeftFoot -16.517555 32.414805 -6.323021
LeftToeBase 19.737849 -0.000000 -0.000000
RightUpLeg 4.698566 2.491655 6.936301
RightLeg 65.588085 -0.000000 -0.000000
RightFoot -27.500150 -33.110827 16.784021
RightToeBase -0.022816 -0.000000 0.000000
663
root -3.284014 35.024127 -11.026672 -4.606909 -4.157496 -6.204152
Spine 5.366796 -3.754545 7.886359
Head 1.782630 5.732744 -6.756858
LeftShoulder -25.330230 16.582775 -10.111857
LeftArm 23.620624 -37.933120 -74.797915
LeftForeArm -3.625585 -0.000000 127.893842
LeftHand 2.018703 -0.000000 10.351354
LeftHandThumb1 -26.253704 0.000000 33.147579
RightShoulder -6.034421 -6.959572 -0.820635
RightArm 4.690292 -19.410151 71.832000
RightForeArm -17.513075 -0.000000 22.412755
RightHand 0.389682 -0.000000 -0.789748
RightHandThumb1 -24.326973 -0.000000 -32.862282
LeftUpLeg 13.873825 5.219180 -4.694946
LeftLeg -9.035341 -0.000000 0.000000
LeftFoot -16.517670 32.565991 -6.380923
LeftToeBase 19.758575 -0.000000 -0.000000
RightUpLeg 4.734090 2.627496 6.949472
RightLeg 66.916143 -0.000000 -0.000000
RightFoot -27.575792 -33.264053 16.852228
RightToeBase 0.072432 -0.000000 -0.000000
664
root -3.283642 35.024828 -11.022143 -4.542937 -4.197708 -6.249383
Spine 5.303976 -3.776352 7.948295
Head 1.768218 5.782128 -6.751833
LeftShoulder -25.387843 16.634207 -10.168882
LeftArm 23.616723 -38.035000 -74.810289
LeftForeArm -3.652658 -0.000000 127.915792
LeftHand 2.033214 -0.000000 10.342215
LeftHandThumb1 -26.253704 0.000000 33.147579
RightShoulder -6.017500 -6.993365 -0.860815
RightArm 4.712698 -19.415756 71.839146
RightForeArm -17.527013 -0.000000 22.420000
RightHand 0.416724 -0.000000 -0.844946
RightHandThumb1 -24.326973 -0.000000 -32.862282
LeftUpLeg 13.835008 5.134748 -4.669604
LeftLeg -9.051434 -0.000000 0.000000
LeftFoot -16.524782 32.601935 -6.371965
LeftToeBase 19.906706 -0.000000 -0.000000
RightUpLeg 4.790237 2.715350 7.039282
RightLeg 68.200655 -0.000000 -0.000000
RightFoot -27.614873 -33.379269 17.039920
RightToeBase -0.135179 -0.000000 0.000000
